HIERARCHY
ROOT hip
{
  OFFSET 0 0 0
  CHANNELS 6 Xposition Yposition Zposition Zrotation Yrotation Xrotation
  JOINT abdomen
  {
    OFFSET 0 20.6881 -0.73152
    CHANNELS 3 Zrotation Xrotation Yrotation
    JOINT chest
    {
      OFFSET 0 11.7043 -0.48768
      CHANNELS 3 Zrotation Xrotation Yrotation
      JOINT neck
      {
        OFFSET 0 22.1894 -2.19456
        CHANNELS 3 Zrotation Xrotation Yrotation
        JOINT head
        {
          OFFSET -0.24384 7.07133 1.2192
          CHANNELS 3 Zrotation Xrotation Yrotation
          JOINT leftEye
          {
            OFFSET 4.14528 8.04674 8.04672
            CHANNELS 3 Zrotation Xrotation Yrotation
            End Site
            {
              OFFSET 1 0 0
            }
          }
          JOINT rightEye
          {
            OFFSET -3.6576 8.04674 8.04672
            CHANNELS 3 Zrotation Xrotation Yrotation
            End Site
            {
              OFFSET 1 0 0
            }
          }
        }
      }
      JOINT rCollar
      {
        OFFSET -2.68224 19.2634 -4.8768
        CHANNELS 3 Zrotation Xrotation Yrotation
        JOINT rShldr
        {
          OFFSET -8.77824 -1.95073 1.46304
          CHANNELS 3 Zrotation Xrotation Yrotation
          JOINT rForeArm
          {
            OFFSET -28.1742 -1.7115 0.48768
            CHANNELS 3 Zrotation Xrotation Yrotation
            JOINT rHand
            {
              OFFSET -22.5879 0.773209 7.07136
              CHANNELS 3 Zrotation Xrotation Yrotation
              JOINT rThumb1
              {
                OFFSET -1.2192 -0.487915 3.41376
                CHANNELS 3 Zrotation Xrotation Yrotation
                JOINT rThumb2
                {
                  OFFSET -3.37035 -0.52449 3.41376
                  CHANNELS 3 Zrotation Xrotation Yrotation
                  End Site
                  {
                    OFFSET -1.78271 -1.18214 1.43049
                  }
                }
              }
              JOINT rIndex1
              {
                OFFSET -7.75947 0.938293 5.60832
                CHANNELS 3 Zrotation Xrotation Yrotation
                JOINT rIndex2
                {
                  OFFSET -2.54057 -0.884171 1.56538
                  CHANNELS 3 Zrotation Xrotation Yrotation
                  End Site
                  {
                    OFFSET -1.62519 -0.234802 1.16502
                  }
                }
              }
              JOINT rMid1
              {
                OFFSET -8.24714 1.18213 3.41376
                CHANNELS 3 Zrotation Xrotation Yrotation
                JOINT rMid2
                {
                  OFFSET -3.10165 -0.590103 1.0647
                  CHANNELS 3 Zrotation Xrotation Yrotation
                  End Site
                  {
                    OFFSET -2.48547 -0.328903 0.83742
                  }
                }
              }
              JOINT rRing1
              {
                OFFSET -8.82822 0.546677 1.51678
                CHANNELS 3 Zrotation Xrotation Yrotation
                JOINT rRing2
                {
                  OFFSET -2.60934 -0.819778 -0.0198488
                  CHANNELS 3 Zrotation Xrotation Yrotation
                  End Site
                  {
                    OFFSET -2.33842 -0.294052 0.168128
                  }
                }
              }
              JOINT rPinky1
              {
                OFFSET -8.27202 -0.0477905 -0.4584
                CHANNELS 3 Zrotation Xrotation Yrotation
                JOINT rPinky2
                {
                  OFFSET -1.82734 -0.647385 -0.700984
                  CHANNELS 3 Zrotation Xrotation Yrotation
                  End Site
                  {
                    OFFSET -1.69225 -0.51767 -0.607171
                  }
                }
              }
            }
          }
        }
      }
      JOINT lCollar
      {
        OFFSET 2.68224 19.2634 -4.8768
        CHANNELS 3 Zrotation Xrotation Yrotation
        JOINT lShldr
        {
          OFFSET 8.77824 -1.95073 1.46304
          CHANNELS 3 Zrotation Xrotation Yrotation
          JOINT lForeArm
          {
            OFFSET 28.1742 -1.7115 0.48768
            CHANNELS 3 Zrotation Xrotation Yrotation
            JOINT lHand
            {
              OFFSET 22.5879 0.773209 7.07136
              CHANNELS 3 Zrotation Xrotation Yrotation
              JOINT lThumb1
              {
                OFFSET 1.2192 -0.487915 3.41376
                CHANNELS 3 Zrotation Xrotation Yrotation
                JOINT lThumb2
                {
                  OFFSET 3.37035 -0.52449 3.41376
                  CHANNELS 3 Zrotation Xrotation Yrotation
                  End Site
                  {
                    OFFSET 1.78271 -1.18214 1.43049
                  }
                }
              }
              JOINT lIndex1
              {
                OFFSET 7.75947 0.938293 5.60832
                CHANNELS 3 Zrotation Xrotation Yrotation
                JOINT lIndex2
                {
                  OFFSET 2.54057 -0.884171 1.56538
                  CHANNELS 3 Zrotation Xrotation Yrotation
                  End Site
                  {
                    OFFSET 1.62519 -0.234802 1.16502
                  }
                }
              }
              JOINT lMid1
              {
                OFFSET 8.24714 1.18213 3.41376
                CHANNELS 3 Zrotation Xrotation Yrotation
                JOINT lMid2
                {
                  OFFSET 3.10165 -0.590103 1.0647
                  CHANNELS 3 Zrotation Xrotation Yrotation
                  End Site
                  {
                    OFFSET 2.48547 -0.328903 0.83742
                  }
                }
              }
              JOINT lRing1
              {
                OFFSET 8.82822 0.546677 1.51678
                CHANNELS 3 Zrotation Xrotation Yrotation
                JOINT lRing2
                {
                  OFFSET 2.60934 -0.819778 -0.0198488
                  CHANNELS 3 Zrotation Xrotation Yrotation
                  End Site
                  {
                    OFFSET 2.33842 -0.294052 0.168128
                  }
                }
              }
              JOINT lPinky1
              {
                OFFSET 8.27202 -0.0477905 -0.4584
                CHANNELS 3 Zrotation Xrotation Yrotation
                JOINT lPinky2
                {
                  OFFSET 1.82734 -0.647385 -0.700984
                  CHANNELS 3 Zrotation Xrotation Yrotation
                  End Site
                  {
                    OFFSET 1.69225 -0.51767 -0.607171
                  }
                }
              }
            }
          }
        }
      }
    }
  }
  JOINT rButtock
  {
    OFFSET -8.77824 4.35084 1.2192
    CHANNELS 3 Zrotation Xrotation Yrotation
    JOINT rThigh
    {
      OFFSET 0 -1.70687 -2.19456
      CHANNELS 3 Zrotation Xrotation Yrotation
      JOINT rShin
      {
        OFFSET 0 -36.8199 0.73152
        CHANNELS 3 Zrotation Xrotation Yrotation
        JOINT rFoot
        {
          OFFSET 0.73152 -45.1104 -5.12064
          CHANNELS 3 Zrotation Xrotation Yrotation
          End Site
          {
            OFFSET -1.1221 -3.69964 12.103
          }
        }
      }
    }
  }
  JOINT lButtock
  {
    OFFSET 8.77824 4.35084 1.2192
    CHANNELS 3 Zrotation Xrotation Yrotation
    JOINT lThigh
    {
      OFFSET 0 -1.70687 -2.19456
      CHANNELS 3 Zrotation Xrotation Yrotation
      JOINT lShin
      {
        OFFSET 0 -36.8199 0.73152
        CHANNELS 3 Zrotation Xrotation Yrotation
        JOINT lFoot
        {
          OFFSET -0.73152 -45.1104 -5.12064
          CHANNELS 3 Zrotation Xrotation Yrotation
          End Site
          {
            OFFSET 1.1221 -3.69964 12.103
          }
        }
      }
    }
  }
}
MOTION
Frames:	4
Frame Time:	0.00833333
-36.9026 84.8576 -9.95567 -182.272 39.0037 -176.715 16.291 -4.05194 4.6776 12.9217 5.11291 1.4435 -0.181093 14.1468 -18.8254 -4.11331 1.08402 -32.5202 -0.0 0.0 0.0 -0.0 0.0 0.0 1.0708e-13 -1.54435e-13 -1.31755e-13 50.8541 37.0199 59.9156 -10.8205 -4.63873 19.3786 -3.10747 -43.8146 -7.74257 -9.3714e-10 -7.79415e-09 9.6731e-10 -1.64313e-09 -1.34104e-08 1.62648e-09 -9.37134e-10 -7.79415e-09 9.67294e-10 7.73091 5.47488 0.417314 -9.37138e-10 -7.79416e-09 9.67309e-10 2.90554 0.965183 0.102902 -9.3713e-10 -7.79416e-09 9.67308e-10 10.2786 0.731801 0.0259123 -9.37146e-10 -7.79416e-09 9.67315e-10 2.22167 -0.733487 -0.20892 1.07048e-13 -1.54427e-13 -1.31936e-13 -32.3872 45.7213 -74.0881 11.0899 -4.82986 -19.8649 3.22404 -44.2922 7.88775 -4.35502e-11 4.68978e-12 -7.5408e-11 -7.37441e-11 8.63376e-12 -1.29154e-10 -4.35532e-11 4.68912e-12 -7.54041e-11 -7.73091 5.47488 -0.417314 -4.35489e-11 4.69069e-12 -7.5419e-11 -2.90554 0.965183 -0.102902 -4.35499e-11 4.69147e-12 -7.54106e-11 -10.2786 0.731801 -0.0259123 -4.35463e-11 4.69591e-12 -7.542e-11 -2.22167 -0.733487 0.20892 -2.03217e-16 0.0 -3.88251e-19 -18.3493 -6.24408 -2.76531 -0.360103 35.0135 0.0241331 1.36491 10.4635 -20.3725 2.03217e-16 0.0 3.88251e-19 -4.64768 -21.1892 -5.07027 0.0518019 13.3532 0.122691 7.81225 11.7017 -36.4931
-36.7978 84.8243 -10.1917 -181.455 37.4296 -176.364 17.1914 -4.32677 5.65168 12.9713 4.49763 1.84311 -0.0839893 14.4549 -19.6016 -3.4819 1.10327 -33.8255 -0.0 0.0 0.0 -0.0 0.0 0.0 8.24086e-14 -7.33632e-14 -3.527e-13 46.2053 37.5463 65.3548 -10.6383 -4.51953 19.0373 -2.42643 -39.8488 -6.72436 6.95478e-10 -3.11798e-08 8.75864e-10 1.17618e-09 -5.33536e-08 1.51719e-09 6.95485e-10 -3.11798e-08 8.75848e-10 7.73091 5.47488 0.417314 6.95479e-10 -3.11798e-08 8.75866e-10 2.90554 0.965183 0.102902 6.95486e-10 -3.11798e-08 8.75865e-10 10.2786 0.731801 0.0259123 6.95473e-10 -3.11798e-08 8.75874e-10 2.22167 -0.733487 -0.20892 8.24109e-14 -7.33397e-14 -3.52861e-13 -36.3626 44.0742 -70.9526 11.4731 -5.07727 -20.6146 3.62664 -46.2828 8.45664 1.49295e-09 -6.7289e-10 -6.247e-10 2.59516e-09 -1.04273e-09 -1.02141e-09 1.49295e-09 -6.72892e-10 -6.24695e-10 -7.73091 5.47488 -0.417314 1.49295e-09 -6.7289e-10 -6.24706e-10 -2.90554 0.965183 -0.102902 1.49295e-09 -6.7289e-10 -6.24702e-10 -10.2786 0.731801 -0.0259123 1.49295e-09 -6.72887e-10 -6.2471e-10 -2.22167 -0.733487 0.20892 -2.03217e-16 0.0 -3.88251e-19 -17.6501 -5.2243 -2.78226 -0.354496 34.661 0.0155689 1.60048 11.0822 -20.3656 2.03217e-16 0.0 3.88251e-19 -4.46021 -21.4447 -5.6165 0.0519702 14.228 0.0890538 8.31316 12.4241 -37.1889
-36.7186 84.7765 -10.4346 -180.859 35.9533 -176.251 18.1227 -4.57146 6.57851 12.9858 3.84249 2.23593 0.0437814 14.6977 -20.3373 -2.90699 1.07914 -35.0687 -0.0 0.0 0.0 -0.0 0.0 0.0 5.98633e-14 1.09889e-14 -5.64249e-13 41.1812 37.594 70.902 -10.6241 -4.51828 18.9964 -1.87763 -35.8661 -5.82262 2.34065e-09 -5.1864e-08 9.49429e-10 4.01035e-09 -8.86746e-08 1.69039e-09 2.34066e-09 -5.1864e-08 9.49415e-10 7.73091 5.47488 0.417314 2.34065e-09 -5.1864e-08 9.49434e-10 2.90554 0.965183 0.102902 2.34066e-09 -5.1864e-08 9.49435e-10 10.2786 0.731801 0.0259123 2.34065e-09 -5.18639e-08 9.49446e-10 2.22167 -0.733487 -0.20892 5.98985e-14 1.10269e-14 -5.64397e-13 -39.8597 42.2605 -68.307 11.9554 -5.40557 -21.5491 4.00367 -47.9958 8.97777 2.89437e-09 -1.3272e-09 -1.2041e-09 5.03129e-09 -2.04007e-09 -1.96726e-09 2.89437e-09 -1.32721e-09 -1.20409e-09 -7.73091 5.47488 -0.417314 2.89437e-09 -1.3272e-09 -1.2041e-09 -2.90554 0.965183 -0.102902 2.89437e-09 -1.3272e-09 -1.2041e-09 -10.2786 0.731801 -0.0259123 2.89437e-09 -1.3272e-09 -1.2041e-09 -2.22167 -0.733487 0.20892 -2.03217e-16 0.0 -3.88251e-19 -16.8965 -4.28769 -2.83357 -0.348865 34.3049 0.00695436 1.83153 11.6839 -20.3774 2.03217e-16 0.0 3.88251e-19 -4.23092 -21.7899 -6.16774 0.0518925 15.1206 0.0541323 8.83312 13.1139 -37.9404
-36.6529 84.7294 -10.7368 -180.554 34.6219 -176.312 18.9883 -4.71675 7.59561 12.871 3.2726 2.64006 0.244818 14.8361 -21.0215 -2.31071 0.899734 -36.2689 -0.0 0.0 0.0 -0.0 0.0 0.0 4.60703e-14 3.49634e-14 -7.06083e-13 36.5956 36.9976 76.0118 -10.7621 -4.61754 19.2386 -1.44952 -32.0383 -5.04571 3.50859e-09 -5.97934e-08 1.06046e-09 6.02354e-09 -1.02198e-07 1.91235e-09 3.5086e-09 -5.97934e-08 1.06045e-09 7.73091 5.47488 0.417314 3.50859e-09 -5.97934e-08 1.06047e-09 2.90554 0.965183 0.102902 3.5086e-09 -5.97934e-08 1.06047e-09 10.2786 0.731801 0.0259123 3.50859e-09 -5.97934e-08 1.06048e-09 2.22167 -0.733487 -0.20892 4.61189e-14 3.50092e-14 -7.06232e-13 -42.6748 40.3402 -66.2282 12.5453 -5.83854 -22.6706 4.37492 -49.503 9.47224 3.8691e-09 -1.85188e-09 -1.58475e-09 6.72526e-09 -2.82229e-09 -2.5853e-09 3.8691e-09 -1.85188e-09 -1.58474e-09 -7.73091 5.47488 -0.417314 3.8691e-09 -1.85188e-09 -1.58475e-09 -2.90554 0.965183 -0.102902 3.8691e-09 -1.85188e-09 -1.58475e-09 -10.2786 0.731801 -0.0259123 3.8691e-09 -1.85188e-09 -1.58476e-09 -2.22167 -0.733487 0.20892 -2.03217e-16 0.0 -3.88251e-19 -16.2422 -3.46271 -2.85901 -0.344323 33.9857 -0.00380328 2.08179 12.351 -20.3451 2.03217e-16 0.0 3.88251e-19 -4.02535 -22.076 -6.59695 0.0504509 15.8998 0.0232214 9.27888 13.6272 -38.6871
